<svg xmlns="http://www.w3.org/2000/svg" xmlns:xlink="http://www.w3.org/1999/xlink" width="500" zoomAndPan="magnify" viewBox="0 0 375 374.999991" height="500" preserveAspectRatio="xMidYMid meet" version="1.0"><defs><clipPath id="506b5def58"><path d="M 110 128 L 273 128 L 273 261 L 110 261 Z M 110 128 " clip-rule="nonzero"/></clipPath><clipPath id="f4721ec471"><path d="M 120.414062 96.785156 L 285.449219 131.980469 L 254.320312 277.949219 L 89.285156 242.753906 Z M 120.414062 96.785156 " clip-rule="nonzero"/></clipPath><clipPath id="76ff995d42"><path d="M 120.414062 96.785156 L 285.449219 131.980469 L 254.320312 277.949219 L 89.285156 242.753906 Z M 120.414062 96.785156 " clip-rule="nonzero"/></clipPath><clipPath id="4924827f2d"><path d="M 120.414062 96.785156 L 285.449219 131.980469 L 254.320312 277.949219 L 89.285156 242.753906 Z M 120.414062 96.785156 " clip-rule="nonzero"/></clipPath></defs><g clip-path="url(#506b5def58)"><g clip-path="url(#f4721ec471)"><g clip-path="url(#76ff995d42)"><g clip-path="url(#4924827f2d)"><path fill="#000000" d="M 259.929688 165.464844 C 259.742188 168.632812 261.136719 170.382812 262 172.289062 C 265.761719 180.621094 267.902344 189.390625 268.492188 198.457031 C 269.140625 208.382812 267.179688 217.75 261.859375 226.417969 C 254.917969 237.71875 245.410156 246.003906 233.632812 251.8125 C 221.703125 257.695312 209.015625 260.480469 195.761719 260.515625 C 172.875 260.578125 152.277344 253.878906 134.464844 239.242188 C 127.464844 233.496094 122.710938 226.308594 120.144531 217.582031 C 118.980469 213.625 118.613281 209.660156 118.761719 205.617188 C 119.09375 196.761719 120.578125 188.128906 123.984375 179.890625 C 124.984375 177.476562 125.945312 175.046875 126.871094 172.605469 C 127.253906 171.59375 126.84375 170.675781 125.960938 170.1875 C 124.511719 169.386719 122.933594 168.8125 121.460938 168.042969 C 114.210938 164.253906 109.789062 156.332031 110.609375 148.699219 C 111.886719 136.824219 123.453125 129.316406 135.203125 132.796875 C 139.632812 134.105469 143.445312 136.429688 146.269531 140.183594 C 146.984375 141.132812 147.582031 142.171875 148.320312 143.09375 C 149.132812 144.109375 150.167969 144.578125 151.414062 143.820312 C 152.632812 143.082031 153.824219 142.304688 155.03125 141.542969 C 171.875 130.945312 190.167969 127.507812 209.6875 130.871094 C 216.96875 132.125 223.832031 134.886719 230.410156 138.285156 C 231.464844 138.828125 232.46875 139.472656 233.519531 140.023438 C 235.640625 141.125 237.300781 140.742188 238.5 138.871094 C 239.140625 137.867188 239.699219 136.808594 240.402344 135.855469 C 246.664062 127.347656 258.21875 126.1875 266.066406 133.253906 C 275.097656 141.386719 274.367188 155.992188 264.507812 163.074219 C 262.988281 164.167969 261.164062 164.835938 259.929688 165.464844 Z M 174.675781 255.617188 C 187.980469 258.058594 201.441406 258.382812 214.835938 255.148438 C 233.613281 250.613281 248.832031 240.890625 259.597656 224.496094 C 263.664062 218.300781 265.761719 211.628906 265.78125 204.355469 C 265.90625 163.550781 234.371094 132.992188 196.085938 132.6875 C 155.574219 132.363281 120.523438 166.75 121.90625 209.464844 C 122.167969 217.613281 125.230469 224.75 130.410156 230.945312 C 133.152344 234.226562 136.296875 237.128906 139.734375 239.722656 C 150.160156 247.59375 161.925781 252.457031 174.679688 255.613281 Z M 232.179688 216.5 C 226.972656 215.429688 223.546875 212.992188 220.699219 209.65625 C 218.527344 207.113281 216.851562 204.238281 215.410156 201.230469 C 211.890625 193.914062 209.464844 186.238281 207.820312 178.292969 C 207.226562 175.441406 207.210938 172.65625 207.929688 169.835938 C 208.863281 166.175781 211.265625 164.148438 214.910156 163.683594 C 217.507812 163.355469 220.066406 163.632812 222.609375 164.554688 C 233.109375 168.355469 241.90625 174.644531 249.410156 182.785156 C 252.335938 185.957031 254.449219 189.679688 255.558594 193.910156 C 256.691406 198.238281 256.347656 202.316406 253.96875 206.238281 C 249.355469 213.839844 239.742188 218.179688 232.179688 216.492188 Z M 234.566406 191.734375 C 235.019531 189.1875 233.507812 187.105469 230.925781 186.699219 C 229.214844 186.429688 227.464844 187.523438 227.140625 189.0625 C 226.648438 191.394531 228.140625 193.859375 230.441406 194.515625 C 232.277344 195.035156 234.210938 193.734375 234.566406 191.734375 Z M 166.492188 193.726562 C 164.914062 201.015625 163.382812 206.984375 160.429688 212.464844 C 157.875 217.210938 154.058594 220.035156 148.472656 219.96875 C 147.53125 219.957031 146.53125 219.957031 145.664062 219.652344 C 137.929688 216.914062 132.046875 212.054688 128.953125 204.3125 C 127.59375 200.90625 127.558594 197.316406 129.207031 193.9375 C 130.453125 191.390625 131.761719 188.839844 133.347656 186.5 C 138.578125 178.773438 144.972656 172.050781 152.628906 166.777344 C 164.136719 158.851562 166.113281 161.21875 167.9375 173.140625 C 169.070312 180.535156 167.824219 187.777344 166.492188 193.726562 Z M 153.128906 196.46875 C 153.101562 196.042969 153.246094 195.261719 152.972656 194.675781 C 152.597656 193.878906 152.039062 192.992188 151.3125 192.582031 C 150.507812 192.128906 149.46875 192.460938 148.734375 193.144531 C 148.234375 193.617188 147.710938 194.128906 147.390625 194.722656 C 146.382812 196.589844 146.515625 198.601562 147.816406 199.925781 C 148.253906 200.371094 149.058594 200.699219 149.683594 200.683594 C 151.355469 200.628906 152.691406 198.96875 153.128906 196.472656 Z M 183.058594 187.71875 C 179.667969 189.992188 179.738281 193.394531 182.769531 195.941406 C 186.816406 199.339844 196.710938 198.347656 200.109375 194.996094 C 202.546875 192.59375 202.265625 188.796875 199.324219 187.113281 C 198.113281 186.417969 196.691406 186.09375 196 185.832031 C 190.96875 184.746094 186.808594 185.203125 183.058594 187.71875 Z M 207.910156 208.082031 C 208.417969 207.035156 208.871094 205.910156 208.382812 204.695312 C 208.300781 204.488281 208.125 204.3125 207.96875 204.144531 C 207.554688 203.710938 207.164062 203.75 206.707031 204.085938 C 205.472656 204.988281 205.191406 206.4375 204.539062 207.679688 C 202.535156 211.515625 199.25 213.664062 195.136719 214.628906 C 189.664062 215.910156 184.796875 214.492188 180.503906 211.027344 C 179.039062 209.84375 177.824219 208.355469 176.421875 207.085938 C 176.207031 206.890625 175.460938 206.976562 175.207031 207.203125 C 174.929688 207.449219 174.769531 208.0625 174.871094 208.429688 C 175.054688 209.097656 175.378906 209.765625 175.804688 210.3125 C 178.855469 214.199219 182.808594 216.613281 187.507812 217.40625 C 194.84375 219.382812 203.777344 216.613281 207.910156 208.085938 Z M 207.910156 208.082031 " fill-opacity="1" fill-rule="nonzero"/></g></g></g></g></svg>